<?xml version="1.0" encoding="UTF-8" standalone="no"?><!DOCTYPE svg PUBLIC "-//W3C//DTD SVG 1.1//EN" "http://www.w3.org/Graphics/SVG/1.1/DTD/svg11.dtd"><svg width="100%" height="100%" viewBox="0 0 407 483" version="1.1" xmlns="http://www.w3.org/2000/svg" xmlns:xlink="http://www.w3.org/1999/xlink" xml:space="preserve" xmlns:serif="http://www.serif.com/" style="fill-rule:evenodd;clip-rule:evenodd;stroke-linecap:round;stroke-linejoin:round;stroke-miterlimit:1.5;"><g id="Six-Pointed-Star" serif:id="Six Pointed Star"><path d="M217.733,2.675l155.846,373.671l-370.922,-29.709l215.076,-343.962Z" style="fill:#f58b00;stroke:#f58b00;stroke-width:4.17px;"/><path d="M202.926,2.083l186.073,360l-372.146,0l186.073,-360Z" style="stroke:#000;stroke-width:4.17px;"/><path d="M186.976,2.77l217.262,342.626l-370.725,32.001l153.463,-374.627Z" style="fill:#f58b00;stroke:#f58b00;stroke-width:4.17px;"/><path d="M217.491,479.587l-215.408,-343.906l366.463,-31.802l-151.055,375.708Z" style="fill:#f58b00;stroke:#f58b00;stroke-width:4.17px;"/><path d="M201.403,480.283l-183.941,-361.2l367.882,0l-183.941,361.2Z" style="stroke:#000;stroke-width:4.17px;"/><path d="M185.584,479.61l-151.617,-375.488l366.51,31.27l-214.893,344.218Z" style="fill:#f58b00;stroke:#f58b00;stroke-width:4.17px;"/><g><path d="M208.193,136.059l69.454,166.531l-165.306,-13.24l95.852,-153.291Z" style="stroke:#f58b00;stroke-width:4.17px;"/><path d="M201.593,135.795l82.926,160.439l-165.852,0l82.926,-160.439Z" style="stroke:#000;stroke-width:4.17px;"/><path d="M194.485,136.101l96.826,152.696l-165.219,14.262l68.393,-166.958Z" style="stroke:#f58b00;stroke-width:4.17px;"/><path d="M208.085,348.601l-96,-153.266l163.32,-14.174l-67.32,167.44Z" style="stroke:#f58b00;stroke-width:4.17px;"/><path d="M200.915,348.912l-81.976,-160.975l163.952,0l-81.976,160.975Z" style="stroke:#000;stroke-width:4.17px;"/><path d="M193.865,348.611l-67.571,-167.341l163.341,13.936l-95.77,153.405Z" style="stroke:#f58b00;stroke-width:4.17px;"/></g></g></svg>
